<?xml version="1.0" encoding="UTF-8" standalone="no"?>
<svg
   xmlns:dc="http://purl.org/dc/elements/1.1/"
   xmlns:cc="http://creativecommons.org/ns#"
   xmlns:rdf="http://www.w3.org/1999/02/22-rdf-syntax-ns#"
   xmlns:svg="http://www.w3.org/2000/svg"
   xmlns="http://www.w3.org/2000/svg"
   xmlns:sodipodi="http://sodipodi.sourceforge.net/DTD/sodipodi-0.dtd"
   xmlns:inkscape="http://www.inkscape.org/namespaces/inkscape"
   enable-background="new 0 0 24 24"
   height="24px"
   id="Layer_1"
   version="1.1"
   viewBox="0 0 24 24"
   width="24px"
   xml:space="preserve"
   inkscape:version="0.48.5 r10040"
   sodipodi:docname="expand.svg"><metadata
     id="metadata13"><rdf:RDF><cc:Work
         rdf:about=""><dc:format>image/svg+xml</dc:format><dc:type
           rdf:resource="http://purl.org/dc/dcmitype/StillImage" /><dc:title></dc:title></cc:Work></rdf:RDF></metadata><defs
     id="defs11" /><sodipodi:namedview
     pagecolor="#ffffff"
     bordercolor="#666666"
     borderopacity="1"
     objecttolerance="10"
     gridtolerance="10"
     guidetolerance="10"
     inkscape:pageopacity="0"
     inkscape:pageshadow="2"
     inkscape:window-width="640"
     inkscape:window-height="480"
     id="namedview9"
     showgrid="false"
     inkscape:zoom="9.8333333"
     inkscape:cx="12"
     inkscape:cy="12.050847"
     inkscape:window-x="1280"
     inkscape:window-y="552"
     inkscape:window-maximized="0"
     inkscape:current-layer="Layer_1" /><g
     id="g3"
     inkscape:export-filename="C:\Users\Robert\Documents\GitHub\thegreatgrouper\dist\images\expand.png"
     inkscape:export-xdpi="960.23999"
     inkscape:export-ydpi="960.23999"><g
       id="g5"><path
         d="M23.244,17.009H0.75c-0.413,0-0.75,0.36-0.75,0.801v3.421C0,21.654,0.337,22,0.75,22h22.494c0.414,0,0.75-0.346,0.75-0.77    V17.81C23.994,17.369,23.658,17.009,23.244,17.009z M23.244,9.009H0.75C0.337,9.009,0,9.369,0,9.81v3.421    c0,0.424,0.337,0.769,0.75,0.769h22.494c0.414,0,0.75-0.345,0.75-0.769V9.81C23.994,9.369,23.658,9.009,23.244,9.009z     M23.244,1.009H0.75C0.337,1.009,0,1.369,0,1.81V5.23c0,0.423,0.337,0.769,0.75,0.769h22.494c0.414,0,0.75-0.346,0.75-0.769V1.81    C23.994,1.369,23.658,1.009,23.244,1.009z"
         id="path7" /></g></g></svg>